<svg width="388" height="388" viewBox="0 0 388 388" fill="none" xmlns="http://www.w3.org/2000/svg">
<path d="M89.0025 93.9119L0 194L89.0025 294.088H388V93.9119H89.0025ZM295.909 136.75L238.66 194L295.751 251.329C298.76 254.417 298.76 259.327 295.751 262.415C292.663 265.503 287.674 265.503 284.665 262.415L227.574 205.086L170.562 262.098C167.632 265.028 162.802 265.424 159.634 262.652C156.229 259.643 156.071 254.417 159.238 251.171L216.488 193.921L159.397 136.829C156.309 133.741 156.15 128.436 159.318 125.427C162.406 122.497 167.236 122.497 170.245 125.585L227.495 182.835L284.586 125.744C287.674 122.656 292.98 122.497 295.989 125.665C298.998 128.832 298.998 133.662 295.909 136.75Z" fill="white"/>
</svg>
